<svg width="252" height="252" version="1.1" xmlns="http://www.w3.org/2000/svg" xmlns:xlink="http://www.w3.org/1999/xlink"><path d="M127.76 49.39L127.76 49.39Q125.75 50.15 121.46 50.15L121.46 50.15Q115.92 47.12 101.81 35.53L101.81 35.53Q98.78 33.01 98.28 32.00L98.28 32.00L99.04 28.48Q99.29 27.97 100.04 27.72L100.04 27.72Q115.42 29.23 118.19 29.99L118.19 29.99Q127.26 32.76 129.02 40.57L129.02 40.57L129.53 45.11Q129.53 47.63 127.76 49.39ZM191.02 57.46L202.61 70.06Q202.61 72.32 199.84 72.83L199.84 72.83L190.76 74.34Q177.91 76.61 166.32 82.66L166.32 82.66L162.29 82.66L162.54 79.88Q173.88 62.75 173.88 62.24L173.88 62.24Q173.88 60.23 171.61 59.98L171.61 59.98Q159.26 57.20 98.28 66.78L98.28 66.78Q91.73 68.04 87.19 68.80L87.19 68.80L63 73.84Q59.72 74.09 56.70 74.09L56.70 74.09Q55.19 75.85 51.16 88.20L51.16 88.20Q46.87 101.56 40.57 101.56L40.57 101.56Q35.03 94.75 35.03 84.42L35.03 84.42Q44.60 71.57 46.37 65.52L46.37 65.52Q46.87 64.51 47.12 63.25L47.12 63.25L47.63 56.95Q48.38 55.44 50.65 55.44L50.65 55.44Q56.45 58.46 58.21 65.02L58.21 65.02L169.60 50.40Q182.45 48.64 191.02 57.46L191.02 57.46ZM194.80 163.04L194.80 163.04Q194.80 164.81 191.27 169.34L191.27 169.34Q190.76 170.35 190.26 171.11L190.26 171.11Q184.97 181.44 181.69 204.62L181.69 204.62Q178.67 227.05 172.12 237.13L172.12 237.13Q166.57 246.20 156.24 252L156.24 252Q150.44 252 145.66 243.94L145.66 243.94Q143.39 239.90 142.88 239.40L142.88 239.40L136.08 231.59Q134.57 229.07 134.32 226.80L134.32 226.80L149.18 229.07L149.44 229.07Q155.23 229.07 158.76 223.02L158.76 223.02Q164.56 213.95 169.09 191.77L169.09 191.77Q172.87 172.87 169.34 167.33L169.34 167.33Q161.78 162.29 119.20 170.60L119.20 170.60Q96.01 175.39 90.97 175.64L90.97 175.64Q86.69 175.64 78.62 170.35L78.62 170.35L77.11 169.34Q64.51 179.93 51.16 182.95L51.16 182.95L47.12 182.45Q47.38 180.43 55.69 174.64L55.69 174.64Q70.06 164.56 73.33 154.48L73.33 154.48Q74.34 150.70 74.34 146.66L74.34 146.66Q72.07 143.89 69.05 133.56L69.05 133.56Q68.54 131.80 68.29 130.54L68.29 130.54L54.94 101.05Q57.20 99.29 64.76 100.30L64.76 100.30Q66.28 100.55 67.28 100.55L67.28 100.55Q78.88 89.21 81.14 82.15L81.14 82.15L81.65 79.13Q86.94 79.13 93.49 84.42L93.49 84.42Q97.02 87.44 97.27 89.96L97.27 89.96Q97.27 91.73 94.00 93.74L94.00 93.74Q78.88 100.80 70.81 103.82L70.81 103.82L73.84 115.92L88.20 113.15Q96.01 112.64 99.79 117.43L99.79 117.43Q99.79 120.96 78.88 123.23L78.88 123.23L76.61 123.73L80.64 137.09L120.96 130.54Q132.05 129.28 135.58 131.54L135.58 131.54Q138.10 126.76 140.87 114.41L140.87 114.41L116.17 114.91L115.92 114.91L113.15 111.64Q117.68 105.84 131.80 106.34L131.80 106.34Q137.84 106.60 141.37 108.36L141.37 108.36Q143.64 98.28 142.63 94.25L142.63 94.25Q140.36 91.98 130.79 93.49L130.79 93.49Q119.20 95.51 115.42 90.22L115.42 90.22Q115.42 88.20 118.44 87.70L118.44 87.70L142.13 83.41Q144.40 82.66 146.41 82.15L146.41 82.15Q155.48 84.17 163.80 95.26L163.80 95.26Q163.80 98.53 159.01 105.34L159.01 105.34L157.25 108.11Q155.48 111.38 152.46 125.75L152.46 125.75Q149.69 139.10 141.88 143.64L141.88 143.64Q137.09 143.64 134.32 138.85L134.32 138.85Q107.35 140.11 82.40 144.40L82.40 144.40Q81.40 147.67 85.68 151.96L85.68 151.96Q89.96 155.99 88.96 159.52L88.96 159.52L82.40 164.56Q121.21 164.56 158.76 155.99L158.76 155.99L172.12 151.45Q175.14 150.95 177.41 151.70L177.41 151.70Q187.74 155.23 194.80 163.04ZM139.86 201.10L139.86 201.10Q135.32 201.10 134.06 199.58L134.06 199.58L120.96 181.69Q120.96 178.67 121.46 177.41L121.46 177.41L135.32 182.70Q142.63 186.48 142.63 193.54L142.63 193.54Q142.63 198.83 139.86 201.10ZM109.12 194.29L109.12 194.29Q109.12 203.62 107.10 205.13L107.10 205.13Q105.34 206.64 101.81 205.63L101.81 205.63Q97.27 200.84 93.49 190.01L93.49 190.01Q92.23 186.73 92.23 184.97L92.23 184.97Q92.23 182.20 95.26 181.69L95.26 181.69Q100.55 181.69 109.12 194.29ZM82.40 202.61L82.40 202.61Q82.40 210.92 78.37 212.44L78.37 212.44Q77.11 212.94 75.10 212.94L75.10 212.94Q70.06 207.65 67.03 193.03L67.03 193.03Q66.53 191.52 66.53 190.51L66.53 190.51L68.04 187.24Q77.11 190.01 82.40 202.61ZM39.82 232.85L39.82 232.85Q31.25 226.55 34.02 207.40L34.02 207.40Q36.04 193.03 36.04 191.52L36.04 191.52Q40.57 187.99 45.11 199.58L45.11 199.58Q50.40 213.44 47.88 224.78L47.88 224.78Q46.12 233.10 39.82 232.85Z" stroke="#000" fill="black" /></svg>