<svg width="252" height="252" version="1.1" xmlns="http://www.w3.org/2000/svg" xmlns:xlink="http://www.w3.org/1999/xlink"><path d="M230.33 113.41L230.33 113.41Q226.55 115.43 214.20 115.93L214.20 115.93L197.06 116.94Q190.01 116.44 186.48 113.67L186.48 113.67Q179.68 108.63 146.41 59.74L146.41 59.74L131.04 92.25Q113.40 126.52 103.07 127.78L103.07 127.78L103.07 125.51Q125.50 85.69 133.06 55.20L133.06 55.20L135.32 44.37L135.32 43.86Q135.32 41.85 132.55 35.80L132.55 35.80Q131.29 33.28 131.29 31.26L131.29 31.26Q138.35 28.24 147.67 34.03L147.67 34.03Q151.96 36.55 154.22 39.83L154.22 39.83Q154.22 42.85 150.70 48.90L150.70 48.90L148.68 52.93Q176.90 82.42 195.80 94.51L195.80 94.51Q203.87 99.81 211.93 103.59L211.93 103.59Q224.78 109.13 227.81 111.15L227.81 111.15Q229.07 112.15 230.33 113.41ZM169.09 107.87L169.60 108.37Q169.60 111.90 167.08 112.91L167.08 112.91Q166.57 112.91 159.77 114.42L159.77 114.42L141.62 119.46Q130.28 121.73 123.23 115.68L123.23 115.68Q123.23 114.42 126.76 112.91L126.76 112.91Q131.80 112.66 149.18 108.12L149.18 108.12Q158.51 105.60 164.81 105.60L164.81 105.60L169.09 107.87ZM207.14 140.38L207.14 140.38L205.13 143.65Q203.62 150.96 204.37 177.42L204.37 177.42Q204.88 206.40 197.32 217.74L197.32 217.74Q197.06 218.25 196.56 219.00L196.56 219.00Q194.29 222.28 190.26 221.27L190.26 221.27L174.13 206.15Q168.08 202.12 167.83 201.87L167.83 201.87Q165.82 199.85 165.82 198.34L165.82 198.34L167.08 197.58L180.18 198.59Q186.23 198.34 187.99 195.06L187.99 195.06Q192.28 161.55 190.51 147.18L190.51 147.18Q189.76 139.12 176.40 139.12L176.40 139.12L156.24 141.64L155.99 141.64L163.80 146.93L164.30 147.43Q164.30 147.69 162.79 158.02L162.79 158.02Q172.12 158.02 176.90 162.81L176.90 162.81Q176.90 166.33 164.30 167.34L164.30 167.34L162.54 167.59L158.26 195.31Q157.50 198.34 156.74 201.11L156.74 201.11L154.22 201.61Q151.96 197.33 151.96 169.86L151.96 169.86Q147.17 169.86 137.09 172.13L137.09 172.13Q137.09 189.52 134.57 196.83L134.57 196.83Q128.52 195.31 128.27 175.66L128.27 175.66Q128.02 174.40 128.02 173.64L128.02 173.64L119.45 173.89L116.42 172.63Q115.67 171.88 115.16 170.62L115.16 170.62L115.16 169.86Q116.93 168.60 126 167.09L126 167.09Q127.01 167.09 127.76 166.84L127.76 166.84Q127.76 159.03 124.74 147.18L124.74 147.18Q122.72 147.18 111.13 149.70L111.13 149.70L110.88 196.83Q110.88 202.62 106.60 207.16L106.60 207.16Q105.59 208.42 104.58 208.92L104.58 208.92Q100.30 207.16 97.02 198.09L97.02 198.09Q97.02 193.05 99.54 187.00L99.54 187.00Q103.32 175.41 101.30 160.03L101.30 160.03Q100.04 149.95 96.26 143.65L96.26 143.65Q96.26 141.39 97.78 140.63L97.78 140.63Q103.32 141.13 105.84 142.39L105.84 142.39L173.63 132.06Q185.47 130.30 188.75 129.04L188.75 129.04Q197.82 129.04 203.87 134.33L203.87 134.33Q207.14 137.10 207.14 140.38ZM137.84 163.81L150.95 160.79Q150.44 149.45 148.18 142.90L148.18 142.90L131.80 145.42Q135.32 146.68 137.84 148.95L137.84 148.95L137.84 163.81ZM107.35 90.73L110.12 93.76Q110.12 96.28 106.34 100.31L106.34 100.31L104.33 103.08L95.00 131.05Q90.72 141.64 85.68 141.64L85.68 141.64Q82.66 140.13 79.38 134.83L79.38 134.83Q73.33 134.83 69.80 136.35L69.80 136.35L69.80 151.21L84.17 149.20Q91.22 148.95 95.26 153.23L95.26 153.23Q95.26 156.76 74.84 160.03L74.84 160.03L70.06 160.79L69.30 215.73Q69.30 220.26 63.50 226.06L63.50 226.06Q62.75 226.56 62.24 227.07L62.24 227.07Q59.47 226.56 56.45 220.51L56.45 220.51Q55.94 219.25 55.44 218.50L55.44 218.50Q50.40 207.66 55.19 187.75L55.19 187.75Q59.22 170.11 59.22 163.81L59.22 163.81Q54.94 164.07 34.78 170.62L34.78 170.62Q12.60 177.93 5.29 172.63L5.29 172.63Q1.51 170.62 1.51 166.84L1.51 166.84L3.53 165.33Q16.38 163.56 59.22 154.49L59.22 154.49L59.22 137.61Q57.71 137.61 46.37 140.13L46.37 140.13Q44.60 140.63 43.09 140.63L43.09 140.63Q42.08 145.67 42.08 145.92L42.08 145.92L41.08 146.68L39.56 146.17L39.56 146.17Q34.27 143.91 31.75 130.55L31.75 130.55Q31.00 125.76 30.49 124.25L30.49 124.25Q29.48 121.73 20.92 98.80L20.92 98.80Q20.16 96.78 20.92 95.52L20.92 95.52Q21.17 95.02 21.67 94.51L21.67 94.51Q30.24 97.54 45.86 93.25L45.86 93.25Q55.94 90.48 60.48 90.23L60.48 90.23L60.48 72.09Q46.87 75.11 39.82 71.83L39.82 71.83Q37.80 70.83 36.29 69.06L36.29 69.06Q36.29 67.80 38.81 67.05L38.81 67.05Q57.20 63.27 59.98 62.26L59.98 62.26Q61.49 48.15 57.20 36.55L57.20 36.55Q54.68 30.00 50.65 23.95L50.65 23.95Q50.65 19.67 59.22 19.92L59.22 19.92Q74.59 30.00 76.10 31.26L76.10 31.26Q76.10 35.55 72.32 49.91L72.32 49.91L70.81 57.97Q85.93 53.94 91.22 55.71L91.22 55.71Q94.00 56.71 95.26 59.23L95.26 59.23Q95.26 63.52 72.83 68.56L72.83 68.56Q71.32 68.81 70.56 69.06L70.56 69.06L70.06 87.46L93.49 83.68Q95.26 83.68 96.77 83.68L96.77 83.68L107.35 90.73ZM91.48 94.51L91.48 94.51L89.46 92.75Q85.68 91.74 72.07 94.01L72.07 94.01L70.56 94.26L70.56 106.61Q80.39 107.11 81.65 110.64L81.65 110.64Q81.90 111.40 81.90 112.15L81.90 112.15Q80.39 113.92 74.34 114.67L74.34 114.67Q71.82 114.93 70.56 115.68L70.56 115.68L70.06 126.27Q78.12 126.27 80.64 129.29L80.64 129.29Q85.68 126.01 90.22 103.84L90.22 103.84Q91.48 97.54 91.48 94.51ZM59.98 109.38L60.48 96.53L40.32 101.82Q38.56 102.33 37.04 103.08L37.04 103.08Q41.83 127.53 42.34 133.83L42.34 133.83Q43.60 133.32 54.94 130.80L54.94 130.80Q57.46 130.30 59.22 129.54L59.22 129.54L59.98 117.45L48.89 118.71L46.12 117.95Q44.86 117.19 44.35 115.68L44.35 115.68Q46.87 113.92 58.21 110.14L58.21 110.14Q59.22 109.89 59.98 109.38L59.98 109.38Z" stroke="#000" fill="black" /></svg>