<?xml version="1.0" encoding="UTF-8" standalone="no"?>
        <svg 
    viewBox="4.0283203125 -86.28616333007812 448.3154296875 56.833648681640625"
    width="444.287109375"
    height="143.11981201171875"
   xmlns="http://www.w3.org/2000/svg"
   xmlns:svg="http://www.w3.org/2000/svg">
   <path d="M47.53-20.73L49.22-21.17Q56.98-17.07 60.68-12.74Q64.38-8.42 64.93-4.47Q65.48-0.51 63.79 2.45Q62.11 5.42 59.11 6.74Q56.10 8.06 52.70 7.14Q49.29 6.23 46.51 2.42L46.51 2.42Q48.19-3.44 48.38-9.59Q48.56-15.75 47.53-20.73L47.53-20.73ZM63.87-23.36L65.26-24.17Q74.49-22.85 79.61-20.07Q84.74-17.29 86.57-13.88Q88.40-10.47 87.74-7.32Q87.08-4.17 84.67-2.16Q82.25-0.15 78.81-0.07Q75.37 0 71.70-2.86L71.70-2.86Q71.34-8.35 69.03-13.95Q66.72-19.56 63.87-23.36L63.87-23.36ZM83.86-27.03L85.03-27.91Q93.97-28.78 99.28-27.36Q104.59-25.93 106.97-23.29Q109.35-20.65 109.31-17.69Q109.28-14.72 107.41-12.45Q105.54-10.18 102.39-9.45Q99.24-8.72 95.43-10.62L95.43-10.62Q93.97-15.16 90.53-19.67Q87.08-24.17 83.86-27.03L83.86-27.03ZM37.21-18.75L37.21-18.75L39.18-18.75Q41.82-11.28 41.49-5.35Q41.16 0.59 38.78 4.58Q36.40 8.57 32.89 10.18L32.89 10.18Q29.00 12.01 24.54 10.55Q20.07 9.08 18.75 4.47L18.75 4.47Q17.72 0.22 20.07-2.86Q22.41-5.93 26.07-7.47L26.07-7.47Q29.59-8.72 33.29-11.87Q36.99-15.01 37.21-18.75ZM22.05-116.82L22.05-116.82L24.02-116.82Q24.90-114.92 25.49-113.12Q26.07-111.33 26.51-109.50L26.51-109.50L64.23-109.50L64.23-128.39L91.33-126.42Q91.11-124.88 90.12-123.78Q89.14-122.68 85.99-122.24L85.99-122.24L85.99-109.50L118.21-109.50L127.95-119.53L145.39-103.20Q144.43-102.17 143.15-101.81Q141.87-101.44 139.53-101.22L139.53-101.22Q136.23-98.58 131.40-95.40Q126.56-92.21 121.95-89.87L121.95-89.87L126.64-86.43Q126.05-85.62 124.69-84.81Q123.34-84.01 121.36-83.57L121.36-83.57L121.36-50.39Q121.29-49.80 118.36-48.71Q115.43-47.61 111.36-46.69Q107.30-45.78 103.93-45.78L103.93-45.78L100.34-45.78L100.34-49.66L60.86-49.66L74.56-46.51Q73.97-45.04 72.29-44.20Q70.61-43.36 66.72-43.36L66.72-43.36Q64.38-41.09 61.67-38.85Q58.96-36.62 55.96-34.50L55.96-34.50L114.33-34.50L124.22-43.65L141.43-29.52Q139.75-27.61 135.42-27.03L135.42-27.03Q134.11-10.33 131.21-1.72Q128.32 6.88 122.53 10.33L122.53 10.33Q118.95 12.60 114.51 13.70Q110.08 14.79 104.08 14.72L104.08 14.72Q104.22 10.62 103.75 7.25Q103.27 3.88 101.73 1.98L101.73 1.98Q100.27-0.07 97.78-1.54Q95.29-3.00 91.33-4.03L91.33-4.03L91.33-5.71Q94.41-5.49 98.69-5.31Q102.98-5.13 105.03-5.13L105.03-5.13Q108.11-5.13 109.35-6.15L109.35-6.15Q113.31-9.16 115.50-30.32L115.50-30.32L49.80-30.32Q40.43-24.24 29.08-19.19Q17.72-14.14 5.13-10.99L5.13-10.99L4.03-12.30Q12.38-16.85 19.96-22.85Q27.54-28.86 33.76-35.30Q39.99-41.75 44.24-47.83L44.24-47.83Q41.97-46.73 38.85-45.92Q35.74-45.12 31.79-45.12L31.79-45.12L28.34-45.12L28.34-94.48L42.92-91.19Q47.09-94.48 51.12-98.25Q55.15-102.03 58.08-105.32L58.08-105.32L27.47-105.32Q28.49-97.85 26.26-92.76Q24.02-87.67 19.92-85.62L19.92-85.62Q17.36-84.45 14.32-84.78Q11.28-85.11 8.83-86.94Q6.37-88.77 5.57-92.07L5.57-92.07Q4.39-96.83 6.85-100.05Q9.30-103.27 13.33-104.88L13.33-104.88Q16.48-106.35 19.45-109.68Q22.41-113.01 22.05-116.82ZM85.33-67.68L84.01-71.85L100.34-71.85L100.34-86.43L83.13-86.43L81.74-90.60L98.88-90.60L108.03-100.34L118.95-92.07Q119.31-95.14 119.53-98.66Q119.75-102.17 119.82-105.32L119.82-105.32L64.53-105.32L80.57-93.75Q78.15-91.11 71.41-92.87L71.41-92.87Q67.90-91.63 63.24-90.42Q58.59-89.21 53.39-88.04L53.39-88.04Q52.73-86.28 48.93-85.77L48.93-85.77L48.93-71.85L51.27-71.85L58.81-81.30Q58.81-81.30 61.19-79.50Q63.57-77.71 66.83-75.07Q70.09-72.44 72.73-70.02L72.73-70.02Q72.29-67.68 68.85-67.68L68.85-67.68L48.93-67.68L48.93-53.83L100.34-53.83L100.34-67.68L85.33-67.68ZM231.74-74.12L230.57-78.30L254.08-78.30L263.23-90.89Q263.23-90.89 266.13-88.51Q269.02-86.13 272.90-82.76Q276.78-79.39 279.79-76.46L279.79-76.46Q279.13-74.12 275.68-74.12L275.68-74.12L231.74-74.12ZM274.37-32.89L274.37-58.23L269.24-58.23L269.24-32.89L274.37-32.89ZM261.77-117.63L261.77-117.63Q257.59-108.25 250.34-99.65Q243.09-91.04 234.27-83.90Q225.44-76.76 216.58-71.70L216.58-71.70L216.58-38.96Q216.50-38.38 214.12-37.17Q211.74-35.96 208.41-34.94Q205.08-33.91 202.08-33.91L202.08-33.91L199.07-33.91L199.07-40.21L195.48-40.21L195.48-21.61L198.49-21.61L207.57-33.62Q207.57-33.62 209.58-32.04Q211.60-30.47 214.64-28.05Q217.68-25.63 220.68-23.07L220.68-23.07L220.68-69.29L237.30-62.40L272.97-62.40L280.22-70.68L296.26-58.67Q295.68-57.86 294.36-57.09Q293.04-56.32 290.99-55.96L290.99-55.96L290.99-6.30Q290.99-0.15 289.86 4.14Q288.72 8.42 285.02 10.88Q281.32 13.33 273.63 14.14L273.63 14.14Q273.63 9.81 273.34 6.52Q273.05 3.22 272.39 1.17L272.39 1.17Q271.95-0.29 271.29-1.39Q270.63-2.49 269.24-3.30L269.24-3.30L269.24 7.47Q269.17 8.06 266.64 9.34Q264.11 10.62 259.94 10.62L259.94 10.62L258.03 10.62L258.03-28.64L252.91-28.64L252.91 7.47Q252.91 8.06 250.38 9.34Q247.85 10.62 243.60 10.62L243.60 10.62L241.77 10.62L241.77-28.64L236.57-28.64L236.57 8.86Q236.57 9.67 234.63 10.95Q232.69 12.23 229.58 13.26Q226.46 14.28 223.02 14.28L223.02 14.28L220.68 14.28L220.68-17.43L220.39-17.43L195.48-17.43L195.48 8.86Q195.48 9.74 191.31 11.83Q187.13 13.92 179.88 13.92L179.88 13.92L176.37 13.92L176.37-17.43L154.32-17.43L153.15-21.61L176.37-21.61L176.37-40.21L173.36-40.21L173.36-36.77Q173.36-36.04 171.39-34.79Q169.41-33.54 166.22-32.59Q163.04-31.64 159.59-31.64L159.59-31.64L157.18-31.64L157.18-95.73L174.17-88.77L176.37-88.77L176.37-102.61L154.47-102.61L153.30-106.79L176.37-106.79L176.37-128.39L200.39-126.42Q200.32-124.95 199.29-123.96Q198.27-122.97 195.48-122.53L195.48-122.53L195.48-106.79L197.09-106.79L206.25-118.95Q206.25-118.95 209.14-116.64Q212.04-114.33 215.92-111.11Q219.80-107.89 222.88-105.03L222.88-105.03Q222.22-102.61 218.70-102.61L218.70-102.61L195.48-102.61L195.48-88.77L197.53-88.77L205.66-97.34L222.00-84.89Q221.34-84.08 219.98-83.28Q218.63-82.47 216.58-82.03L216.58-82.03L216.58-74.12Q221.19-79.47 225.62-86.28Q230.05-93.09 233.83-100.42Q237.60-107.74 240.20-114.77Q242.80-121.80 243.75-127.66L243.75-127.66L269.24-122.09Q268.95-120.78 267.74-120.04Q266.53-119.31 263.38-118.95L263.38-118.95Q266.82-112.72 272.97-107.89Q279.13-103.05 286.19-99.61Q293.26-96.17 299.56-94.04L299.56-94.04L299.41-92.29Q293.63-90.31 290.26-85.18Q286.89-80.05 286.23-74.12L286.23-74.12Q277.66-81.30 271.07-92.98Q264.48-104.66 261.77-117.63ZM241.77-32.89L241.77-58.23L236.57-58.23L236.57-32.89L241.77-32.89ZM258.03-58.23L252.91-58.23L252.91-32.89L258.03-32.89L258.03-58.23ZM269.24-28.64L269.24-6.15L272.39-6.01Q273.63-6.01 274.00-6.56Q274.37-7.10 274.37-8.28L274.37-8.28L274.37-28.64L269.24-28.64ZM178.05-44.38L178.05-62.55L173.36-62.55L173.36-44.38L178.05-44.38ZM199.07-62.55L193.80-62.55L193.80-44.38L199.07-44.38L199.07-62.55ZM173.36-66.72L178.05-66.72L178.05-84.59L173.36-84.59L173.36-66.72ZM193.80-84.59L193.80-66.72L199.07-66.72L199.07-84.59L193.80-84.59ZM415.65-110.82L388.48-110.82L388.48-88.92L415.65-88.92L415.65-110.82ZM308.13 6.74L308.13-115.36L308.13-123.78L328.20-115.36L337.65-115.36L347.09-125.68L365.55-111.18Q364.75-110.16 363.28-109.31Q361.82-108.47 359.55-108.03L359.55-108.03L359.55-10.99L368.41-12.16L368.41-123.12L390.45-115.06L413.96-115.06L423.49-125.54L443.12-110.52Q442.31-109.64 440.77-108.65Q439.23-107.67 436.67-107.23L436.67-107.23L436.67-56.84Q436.52-56.32 433.89-55.15Q431.25-53.98 427.66-53.10L427.66-53.10L447.00-39.18Q446.56-38.23 445.24-37.90Q443.92-37.57 441.28-38.23L441.28-38.23Q438.65-36.84 434.51-35.23Q430.37-33.62 425.76-31.97Q421.14-30.32 416.97-28.78L416.97-28.78Q430.00-14.43 448.32-9.16L448.32-9.16L448.02-7.47Q442.09-5.71 437.62-0.15Q433.15 5.42 431.25 13.92L431.25 13.92Q416.09 3.44 408.62-14.28L408.62-14.28Q402.61-9.52 393.82-3.48Q385.03 2.56 372.44 10.18L372.44 10.18Q371.26 13.55 368.12 14.28L368.12 14.28L357.42-6.59Q355.08-5.27 350.72-3.85Q346.36-2.42 342.48-2.42L342.48-2.42L339.18-2.42L339.18-13.77L327.61-13.77L327.61-0.44Q327.61 0.73 325.38 2.45Q323.14 4.17 319.45 5.46Q315.75 6.74 311.43 6.74L311.43 6.74L308.13 6.74ZM415.65-84.74L388.48-84.74L388.48-62.40L415.65-62.40L415.65-84.74ZM398.88-58.23L388.48-58.23L388.48-15.01L407.08-18.02Q404.08-26.07 402.10-36.07Q400.12-46.07 398.88-58.23L398.88-58.23ZM415.65-51.93L415.65-58.23L400.78-58.23Q402.91-50.90 406.16-44.57Q409.42-38.23 413.53-32.89L413.53-32.89Q416.46-37.57 419.46-43.03Q422.46-48.49 424.51-52.51L424.51-52.51Q423.12-52.15 421.80-52.04Q420.48-51.93 419.24-51.93L419.24-51.93L415.65-51.93ZM339.18-18.02L339.18-47.24L327.61-47.24L327.61-18.02L339.18-18.02ZM327.61-51.42L339.18-51.42L339.18-80.27L327.61-80.27L327.61-51.42ZM327.61-84.45L339.18-84.45L339.18-111.18L327.61-111.18L327.61-84.45Z"/>
    </svg>
        