<svg width="252" height="252" version="1.1" xmlns="http://www.w3.org/2000/svg" xmlns:xlink="http://www.w3.org/1999/xlink"><path d="M219.24 158.51L219.24 158.51L216.97 160.02Q189.76 164.05 174.64 163.04L174.64 163.04L173.12 163.04Q155.99 152.96 118.19 105.59L118.19 105.59Q109.37 94.25 108.36 92.99L108.36 92.99Q105.34 161.03 105.84 167.83L105.84 167.83L106.09 170.10Q131.29 154.22 136.84 151.20L136.84 151.20Q138.60 151.20 139.10 151.96L139.10 151.96L138.35 154.48L110.63 182.45Q109.62 183.96 108.36 185.22L108.36 185.22L97.27 199.84Q97.02 200.34 96.52 200.59L96.52 200.59Q94.50 203.11 90.97 203.11L90.97 203.11Q83.66 196.56 83.66 186.73L83.66 186.73L91.48 173.12Q92.99 169.34 93.49 165.82L93.49 165.82Q98.03 119.95 97.52 68.04L97.52 68.04Q97.52 63 97.27 57.71L97.27 57.71Q97.02 40.82 89.96 24.44L89.96 24.44Q89.21 22.18 88.20 20.41L88.20 20.41Q88.20 12.10 105.34 23.18L105.34 23.18Q130.79 18.65 150.95 11.34L150.95 11.34L156.74 11.59L166.82 18.65Q170.86 22.43 170.86 27.47L170.86 27.47Q163.30 39.56 159.77 65.27L159.77 65.27Q157.75 87.19 149.44 87.95L149.44 87.95Q146.92 88.20 143.64 84.17L143.64 84.17Q141.37 80.89 139.10 80.39L139.10 80.39Q138.10 80.14 109.37 86.18L109.37 86.18Q129.28 105.08 147.17 120.71L147.17 120.71Q158.26 106.85 164.30 92.74L164.30 92.74Q163.80 86.94 165.31 85.93L165.31 85.93Q165.82 85.68 166.57 85.43L166.57 85.43Q172.37 84.17 180.18 92.74L180.18 92.74L183.96 97.52L183.96 97.78L183.96 99.29Q167.08 110.38 151.20 124.24L151.20 124.24Q174.89 143.39 216.97 155.74L216.97 155.74Q219.24 157.50 219.24 158.51ZM110.12 29.74L110.12 29.74Q108.11 38.81 107.60 53.42L107.60 53.42L124.49 47.88Q132.30 46.12 137.59 50.90L137.59 50.90Q139.61 52.42 138.60 53.93L138.60 53.93Q138.35 54.43 137.84 54.68L137.84 54.68L108.36 59.98L108.36 79.63Q126.76 74.34 129.28 74.09L129.28 74.09Q136.33 72.83 142.38 74.09L142.38 74.09Q143.89 75.60 145.66 71.82L145.66 71.82L150.44 26.71Q151.96 16.63 113.90 28.48L113.90 28.48Q112.14 29.23 110.12 29.74ZM73.84 29.74L73.84 29.74Q73.84 31.25 71.32 37.30L71.32 37.30Q70.81 38.56 70.56 39.82L70.56 39.82Q68.29 50.15 68.29 78.12L68.29 78.12Q68.29 98.03 69.55 122.72L69.55 122.72L70.56 143.64Q70.06 157.25 61.99 164.81L61.99 164.81Q61.49 165.31 60.98 165.56L60.98 165.56Q57.46 165.06 53.17 157.25L53.17 157.25Q51.16 153.97 50.15 152.71L50.15 152.71L27.72 154.98Q27.47 155.48 26.21 160.52L26.21 160.52Q25.70 162.79 24.19 164.30L24.19 164.30Q23.44 165.06 21.92 165.82L21.92 165.82Q16.88 165.82 14.11 154.48L14.11 154.48Q13.36 151.45 13.36 149.69L13.36 149.69Q13.36 146.16 16.63 132.80L16.63 132.80Q17.39 129.02 17.64 126.25L17.64 126.25Q20.16 100.04 20.16 78.88L20.16 78.88Q20.16 54.68 17.64 43.09L17.64 43.09L12.85 29.74Q12.60 28.22 12.60 26.96L12.60 26.96Q19.40 26.96 27.22 31.75L27.22 31.75Q43.34 27.22 52.92 22.43L52.92 22.43Q66.53 23.44 73.84 29.74ZM57.20 36.79L57.20 36.79L54.18 33.01Q51.16 33.01 38.05 36.29L38.05 36.29Q33.26 37.30 29.99 37.55L29.99 37.55Q28.48 60.48 29.23 72.32L29.23 72.32L30.24 71.06Q41.08 66.02 49.14 69.30L49.14 69.30Q51.91 70.31 53.68 72.32L53.68 72.32Q53.68 74.84 52.92 75.35L52.92 75.35Q52.16 76.10 30.24 79.88L30.24 79.88Q29.48 79.88 29.23 80.14L29.23 80.14L28.48 106.34Q41.58 100.80 49.39 103.32L49.39 103.32Q54.18 105.08 54.18 108.36L54.18 108.36Q50.90 111.64 30.49 114.41L30.49 114.41Q29.48 114.66 28.73 114.66L28.73 114.66L27.97 148.18Q41.83 144.14 45.11 144.14L45.11 144.14Q50.15 143.64 54.18 145.40L54.18 145.40Q58.46 114.41 58.97 69.05L58.97 69.05Q59.22 45.36 57.20 36.79Z" stroke="#000" fill="black" /></svg>